<svg width="287.124573" height="152.009277" viewBox="0 0 287.125 152.009" fill="none" xmlns="http://www.w3.org/2000/svg" xmlns:xlink="http://www.w3.org/1999/xlink">
	<desc>
			Created with Pixso.
	</desc>
	<path d="M128.445 10.6226L128.445 0L11.7822 0Q6.86523 0 3.43262 3.33984Q0 6.6333 0 11.5967L0 140.227Q0 145.144 3.43262 148.577Q6.86523 152.009 11.7822 152.009L122.739 152.009L128.445 141.34L34.0015 141.34Q32.3315 141.34 30.9863 139.995Q29.6411 138.696 29.6411 136.98L29.6411 14.9829Q29.6411 13.313 30.9863 11.9678Q32.3315 10.6226 34.0015 10.6226L128.445 10.6226ZM191.707 109.612L257.066 109.612L271.91 152.009L287.125 152.009L236.749 9.0918Q235.218 5.28809 231.692 2.64404Q228.213 0 223.621 0L209.983 0Q205.762 0 202.237 2.64404Q198.758 5.28809 197.227 9.0918L144.207 152.009L176.121 152.009L191.707 109.612ZM226.868 23.1934L253.262 98.9893L195.511 98.9893L223.436 23.1934Q224.039 22.0337 225.152 22.1265Q226.312 22.2192 226.868 23.1934Z" fill="#000000"/>
	<defs/>
</svg>
